<svg width="1280" height="640" viewBox="0 0 1280 640" xmlns="http://www.w3.org/2000/svg" role="img" aria-labelledby="title desc">
  <title id="title">Domium social preview</title>
  <desc id="desc">Domium, a lightweight DDD and CQRS foundation for modern .NET applications.</desc>
  <rect width="1280" height="640" fill="#0F172A"/>
  <rect x="72" y="72" width="1136" height="496" rx="28" fill="#111827" stroke="#334155" stroke-width="2"/>
  <g transform="translate(116 176)">
    <path d="M88 0H216L304 88V216L216 304H88L0 216V88L88 0Z" fill="#512BD4"/>
    <path d="M100 54H156C214 54 250 91 250 152C250 213 214 250 156 250H100V54Z" fill="#FFFFFF"/>
    <path d="M138 94H156C184 94 204 116 204 152C204 188 184 210 156 210H138V94Z" fill="#512BD4"/>
  </g>
  <g fill="#F8FAFC" font-family="Segoe UI, Arial, sans-serif">
    <text x="476" y="240" font-size="88" font-weight="700">Domium</text>
    <text x="480" y="304" font-size="32" fill="#CBD5E1">DDD and CQRS foundation for modern .NET applications</text>
    <text x="480" y="384" font-size="28" fill="#A5B4FC">Aggregates • Commands • Queries • Persistence • Eventing</text>
  </g>
  <g transform="translate(480 430)" fill="#E2E8F0" font-family="Segoe UI, Arial, sans-serif" font-size="22">
    <rect width="158" height="44" rx="8" fill="#1E293B" stroke="#475569"/>
    <text x="24" y="29">CQRS</text>
    <rect x="178" width="168" height="44" rx="8" fill="#1E293B" stroke="#475569"/>
    <text x="202" y="29">DDD</text>
    <rect x="366" width="188" height="44" rx="8" fill="#1E293B" stroke="#475569"/>
    <text x="390" y="29">.NET</text>
  </g>
</svg>
